<svg width="118" height="35" viewBox="0 0 118 35" fill="none" xmlns="http://www.w3.org/2000/svg"><rect width="118" height="35" rx="12" fill="#FFFAFC"/><path d="M7.06534 27H4.66477L11.608 8.09091h2.3636L20.9148 27h-2.4006l-5.6506-15.9176h-.1477L7.06534 27zm.88636-7.3864h9.6761v2.0313H7.9517v-2.0313zM23.717 27V12.8182h2.179V27h-2.179zm1.1079-16.5455c-.4247 0-.7909-.1446-1.0987-.4339-.3016-.2893-.4524-.63708-.4524-1.04333 0-.40625.1508-.75402.4524-1.04332.3078-.2893.674-.43395 1.0987-.43395.4247 0 .7879.14465 1.0895.43395.3078.2893.4617.63707.4617 1.04332s-.1539.75403-.4617 1.04333c-.3016.2893-.6648.4339-1.0895.4339z" fill="#192643"/><path d="M28.6463 12v-.9517l2.5249-2.47515c.2414-.24384.4427-.46046.6037-.64985.1609-.1894.2817-.37287.3622-.55043.0805-.17756.1207-.36695.1207-.56818 0-.22964-.0521-.42614-.1562-.58949-.1042-.16572-.2474-.29356-.4297-.38352-.1823-.08997-.3895-.13495-.6215-.13495-.2391 0-.4486.04972-.6285.14915-.1799.09706-.3196.23556-.4191.41548-.097.17993-.1456.39418-.1456.64276h-1.2535c0-.46165.1053-.86293.316-1.20384.2107-.34091.5008-.60487.8701-.7919.3717-.18703.7978-.28054 1.2784-.28054.4877 0 .9162.09115 1.2855.27344.3693.18229.6558.43205.8594.74929.2059.31723.3089.67945.3089 1.08665 0 .27225-.0521.53977-.1562.80255-.1042.26279-.2877.55398-.5505.87358-.2604.3196-.6261.70668-1.0973 1.16122l-1.2535 1.27483v.0497h3.1676V12h-4.9858z" fill="#FC79D7"/><path d="M50.2159 14c-.2031-.6217-.4709-1.1787-.8033-1.6712-.3262-.4985-.7171-.9233-1.1725-1.2741-.4494-.3509-.9603-.6186-1.5327-.8033-.5725-.1846-1.2003-.27697-1.8835-.27697-1.1203 0-2.139.28927-3.0561.86787-.9172.5786-1.6466 1.4311-2.1883 2.5576-.5416 1.1264-.8125 2.5082-.8125 4.1456 0 1.6373.274 3.0191.8218 4.1456.5478 1.1264 1.2895 1.9789 2.2251 2.5575.9356.5786 1.9882.8679 3.1577.8679 1.0833 0 2.0374-.2308 2.8622-.6925.831-.4678 1.4773-1.1264 1.9389-1.9758.4678-.8556.7017-1.862.7017-3.0192l.7017.1477h-5.6875v-2.0312h7.2017v2.0312c0 1.5573-.3323 2.9115-.9971 4.0625-.6586 1.151-1.5696 2.0436-2.733 2.6776-1.1572.6278-2.4867.9417-3.9886.9417-1.6743 0-3.1454-.3939-4.4134-1.1818-1.2618-.7879-2.2466-1.9081-2.9545-3.3608-.7017-1.4526-1.0526-3.1761-1.0526-5.1704 0-1.4958.2001-2.8407.6002-4.0348.4062-1.2003.9787-2.2221 1.7173-3.0654.7386-.84326 1.6127-1.48957 2.6222-1.93891 1.0094-.44934 2.1205-.674 3.3331-.674.9971 0 1.9266.1508 2.7883.45241.8679.29545 1.6404.71709 2.3175 1.26491.6832.54169 1.2526 1.19109 1.7081 1.94819.4555.7509.7694 1.585.9417 2.5021h-2.3636zm10.274 13.3324c-.8987 0-1.7143-.1693-2.4468-.5078-.7324-.3447-1.3141-.8402-1.745-1.4865-.4309-.6525-.6463-1.4404-.6463-2.3637 0-.8125.16-1.4711.4801-1.9758.3201-.5109.7479-.911 1.2834-1.2003.5355-.2893 1.1264-.5047 1.7727-.6463.6525-.1477 1.308-.2647 1.9667-.3509.8617-.1108 1.5603-.1939 2.0958-.2493.5417-.0615.9356-.1631 1.1819-.3046.2523-.1416.3785-.3878.3785-.7387v-.0738c0-.911-.2493-1.6189-.7479-2.1236-.4924-.5048-1.2403-.7571-2.2436-.7571-1.0402 0-1.8558.2277-2.4467.6832s-1.0064.9418-1.2465 1.4588l-2.0681-.7386c.3693-.8618.8617-1.5327 1.4772-2.0128.6217-.4863 1.2988-.8248 2.0313-1.0156.7386-.197 1.4649-.2955 2.179-.2955.4555 0 .9787.0554 1.5696.1662.597.1047 1.1725.3232 1.7265.6556.5602.3323 1.0249.834 1.3942 1.5049.3693.671.554 1.5696.554 2.696V27h-2.179v-1.9205h-.1108c-.1477.3078-.3939.6371-.7386.988-.3447.3508-.8033.6494-1.3757.8956-.5725.2462-1.2711.3693-2.0959.3693zm.3324-1.9574c.8617 0 1.588-.1693 2.1789-.5078.5971-.3386 1.0464-.7756 1.3481-1.3111.3077-.5355.4616-1.0987.4616-1.6896v-1.9943c-.0923.1108-.2955.2123-.6094.3046-.3077.0862-.6647.1632-1.071.2309-.4001.0615-.791.1169-1.1726.1662-.3755.0431-.6801.08-.914.1108-.5663.0738-1.0957.1939-1.5881.36-.4863.1601-.8802.4032-1.1818.7294-.2955.3201-.4432.7571-.4432 1.3111 0 .7571.2801 1.3296.8402 1.7174.5663.3816 1.2834.5724 2.1513.5724zm15.906 1.9205c-1.3295 0-2.4744-.314-3.4346-.9418-.9602-.6278-1.6989-1.4927-2.2159-2.5945-.5171-1.1018-.7756-2.3605-.7756-3.7762 0-1.4404.2647-2.7115.794-3.8133.5355-1.1079 1.2803-1.9727 2.2344-2.5944.9602-.6279 2.0805-.9418 3.3608-.9418.9972 0 1.8958.1847 2.696.554.8002.3693 1.4558.8864 1.9666 1.5511.5109.6648.8279 1.4404.951 2.3267h-2.1789c-.1662-.6463-.5355-1.2187-1.108-1.7173-.5663-.5047-1.3295-.7571-2.2898-.7571-.8494 0-1.5942.2216-2.2343.6648-.634.437-1.1295 1.0556-1.4865 1.8558-.3509.794-.5263 1.7266-.5263 2.7976 0 1.0956.1723 2.0497.517 2.8622.3509.8125.8433 1.4434 1.4773 1.8928.6401.4493 1.3911.674 2.2528.674.5663 0 1.0803-.0985 1.5419-.2955.4617-.197.8526-.4801 1.1726-.8494.3201-.3693.5478-.8125.6833-1.3296h2.1789c-.1231.8372-.4278 1.5912-.914 2.2621-.4801.6648-1.1172 1.1941-1.9112 1.5881-.7879.3878-1.7051.5817-2.7515.5817zm10.9411-8.8267V27h-2.179V8.09091h2.179v6.94319h.1846c.3324-.7325.831-1.3142 1.4958-1.745.6709-.4371 1.5634-.6556 2.6775-.6556.9664 0 1.8128.1939 2.5391.5817.7263.3816 1.2895.9695 1.6896 1.7635.4063.7879.6094 1.7912.6094 3.0099V27h-2.179v-8.8636c0-1.1265-.2923-1.9974-.8771-2.613-.5786-.6216-1.3819-.9325-2.4098-.9325-.714 0-1.3542.1508-1.9205.4524-.5601.3016-1.0033.7417-1.3295 1.3203-.3201.5786-.4801 1.2803-.4801 2.1052zm17.3556 8.8636c-.899 0-1.714-.1693-2.447-.5078-.732-.3447-1.314-.8402-1.745-1.4865-.431-.6525-.646-1.4404-.646-2.3637 0-.8125.16-1.4711.48-1.9758.32-.5109.748-.911 1.283-1.2003.536-.2893 1.127-.5047 1.773-.6463.653-.1477 1.308-.2647 1.967-.3509.862-.1108 1.56-.1939 2.096-.2493.541-.0615.935-.1631 1.182-.3046.252-.1416.378-.3878.378-.7387v-.0738c0-.911-.249-1.6189-.748-2.1236-.492-.5048-1.24-.7571-2.243-.7571-1.041 0-1.856.2277-2.447.6832s-1.007.9418-1.247 1.4588l-2.068-.7386c.37-.8618.862-1.5327 1.477-2.0128.622-.4863 1.299-.8248 2.032-1.0156.738-.197 1.465-.2955 2.179-.2955.455 0 .978.0554 1.569.1662.597.1047 1.173.3232 1.727.6556.56.3323 1.025.834 1.394 1.5049.369.671.554 1.5696.554 2.696V27h-2.179v-1.9205h-.111c-.147.3078-.394.6371-.738.988-.345.3508-.804.6494-1.376.8956-.573.2462-1.271.3693-2.096.3693zm.332-1.9574c.862 0 1.588-.1693 2.179-.5078.597-.3386 1.047-.7756 1.348-1.3111.308-.5355.462-1.0987.462-1.6896v-1.9943c-.092.1108-.295.2123-.609.3046-.308.0862-.665.1632-1.071.2309-.4.0615-.791.1169-1.173.1662-.375.0431-.68.08-.914.1108-.566.0738-1.096.1939-1.588.36-.486.1601-.88.4032-1.182.7294-.295.3201-.443.7571-.443 1.3111 0 .7571.28 1.3296.84 1.7174.566.3816 1.284.5724 2.151.5724z" fill="#192643"/></svg>