<svg width="320" height="280" viewBox="0 0 320 280" fill="none" xmlns="http://www.w3.org/2000/svg"><g clip-path="url(#clip0_20_57)"><path d="M53.9659 248.442c-10.5129 5.672-15.0258 17.711-15.0258 17.711s12.5317 2.842 23.0445-2.83c10.5128-5.673 15.0258-17.711 15.0258-17.711s-12.5317-2.842-23.0445 2.83z" fill="#F2F2F2"/><path d="M57.4245 252.341c-6.1573 10.241-18.3874 14.185-18.3874 14.185s-2.2471-12.66 3.9102-22.901 18.3873-14.185 18.3873-14.185 2.2472 12.66-3.9101 22.901z" fill="#F2F2F2"/><path d="M251.997 19.7063h-37.3v22.1004h37.3V19.7063z" fill="#2F2E41"/><path d="M177.743 23.2699h-19.231v-6.7106c0-2.552 1.013-4.9994 2.816-6.80387 1.803-1.80449 4.249-2.81824 6.799-2.81824 2.551 0 4.997 1.01375 6.8 2.81824 1.803 1.80447 2.816 4.25187 2.816 6.80387v6.7106zm-18.806-.4261h18.38v-6.2845c0-2.439-.968-4.778-2.691-6.5026-1.724-1.72458-4.061-2.69344-6.499-2.69344-2.437 0-4.774.96886-6.498 2.69344-1.723 1.7246-2.692 4.0636-2.692 6.5026v6.2845z" fill="#3F3D56"/><path d="M187.253 22.3469v-2.6225l-48.908 1.3113-1.548 66.4289 7.238 8.9472 43.218-74.0649z" fill="#3F3D56"/><path d="M195.91 21.4236l-53.01 1.2072 1.135 73.781 51.158-5.5177.717-69.4705z" fill="#FC79D7"/><path d="M240.98 260.468h-6.017l-2.862-23.224h8.88l-.001 23.224z" fill="#FFB6B6"/><path d="M242.515 266.305l-19.402-.001v-.246c0-2.004.796-3.926 2.212-5.343 1.416-1.417 3.337-2.213 5.34-2.213h11.85v7.803z" fill="#2F2E41"/><path d="M218.894 260.468h-6.017l-2.862-23.224h8.88l-.001 23.224z" fill="#FFB6B6"/><path d="M220.429 266.305l-19.402-.001v-.246c0-2.004.796-3.926 2.212-5.343 1.416-1.417 3.337-2.213 5.34-2.213h11.85v7.803zM201.223 115.049s-8.791 18.945-.849 57.079c7.943 38.133 8.008 79.997 8.008 79.997l12.144.198 6.822-90.13 3.572 88.858h11.965l10.544-87.453s6.939-39.051-8.534-46.043l-43.672-2.506z" fill="#2F2E41"/><path d="M243.304 48.1913l-26.59-2.4527c-8.338 6.0818-13.019 17.005-12.058 28.2755 1.303 15.281.862 36.3109-9.591 45.4469 0 0 28.49 22.501 53.799 1.154 0 0-8.654-23.1997-2.713-32.4642 5.942-9.2645 8.086-35.2939-2.847-39.9595z" fill="#E4E4E4"/><path d="M164.185 10.4323c-.082.767.006 1.5425.256 2.272.251.7295.658 1.3951 1.193 1.9501.536.555 1.186.9857 1.906 1.262.719.2762 1.491.3912 2.26.3368l35.108 32.7861 6.292-9.5915-36.489-29.2116c-.176-1.2865-.819-2.46335-1.805-3.30757s-2.247-1.29716-3.545-1.27299c-1.297.02418-2.541.52378-3.495 1.40414-.954.88037-1.552 2.08032-1.681 3.37252z" fill="#FFB6B6"/><path d="M198.352 43.9744l8.329-8.5611c.237-.2435.523-.4332.84-.5559.317-.1227.657-.1757.996-.1553.339.0205.669.1138.969.2736.3.1599.562.3825.768.6528l7.221 9.47c1.238 1.2204 1.942 2.8823 1.958 4.6214.016 1.7392-.658 3.4137-1.874 4.6563-1.216 1.2427-2.875 1.9521-4.613 1.9729-1.738.0207-3.413-.649-4.658-1.8624l-9.625-6.9436c-.276-.1989-.505-.4549-.673-.7505-.168-.2956-.27-.6239-.299-.9626-.03-.3387.014-.6797.128-.9999.114-.3202.296-.6121.533-.8556v-.0001z" fill="#E4E4E4"/><path d="M294.618 90.2737c.039-.7703-.091-1.5398-.382-2.2542-.291-.7144-.734-1.3564-1.299-1.8808-.566-.5243-1.239-.9183-1.973-1.1541-.734-.2358-1.51-.3077-2.275-.2107l-36.874-30.7836-5.751 9.9265 38.055 27.138c.248 1.2746.955 2.4139 1.986 3.202 1.031.7881 2.316 1.1702 3.61 1.074 1.294-.0963 2.508-.6643 3.412-1.5963.904-.9321 1.434-2.1634 1.491-3.4608z" fill="#FFB6B6"/><path d="M258.642 58.6829l-7.841 9.0109c-.223.2563-.499.4616-.808.6018-.31.1401-.646.2119-.985.2103-.34-.0015-.676-.0763-.984-.2192-.308-.1429-.582-.3507-.803-.609l-7.735-9.0541c-1.304-1.1495-2.1-2.7698-2.212-4.5055-.113-1.7357.467-3.4452 1.612-4.7536 1.146-1.3085 2.763-2.1091 4.497-2.2263 1.734-.1172 3.444.4585 4.755 1.601l9.995 6.3978c.286.1833.53.4261.714.7119.183.2859.304.608.352.9445.048.3365.023.6795-.073 1.0055-.096.3261-.261.6276-.484.884z" fill="#E4E4E4"/><path d="M298.365 103.29h-14.568v-5.0828c0-1.933.768-3.7869 2.134-5.1537 1.366-1.3669 3.218-2.1348 5.15-2.1348 1.932 0 3.784.7679 5.15 2.1348 1.366 1.3668 2.134 3.2207 2.134 5.1537v5.0828zm-14.245-.322h13.922v-4.7608c0-1.8474-.733-3.6192-2.039-4.9255-1.305-1.3063-3.076-2.0402-4.922-2.0402-1.846 0-3.617.7339-4.922 2.0402-1.306 1.3063-2.039 3.0781-2.039 4.9255v4.7608z" fill="#3F3D56"/><path d="M305.568 102.591v-1.987l-37.047.994-1.172 50.318 5.482 6.777 32.737-56.102z" fill="#3F3D56"/><path d="M312.126 101.892l-40.154.914.859 55.887 38.751-4.179.544-52.622z" fill="#FC79D7"/><path d="M231.875 41.3156c8.674 0 15.705-7.0362 15.705-15.7158 0-8.6797-7.031-15.71589-15.705-15.71589s-15.706 7.03619-15.706 15.71589c0 8.6796 7.032 15.7158 15.706 15.7158z" fill="#FFB6B6"/><path d="M224.644 18.5955c5.433 5.3279 14.888 5.8385 20.862 1.1267 1.659 5.7232 1.84 11.7735.528 17.5859-1.312 5.8124-4.075 11.1971-8.031 15.6512 3.324 1.2016 7.15.4111 10.12-1.5042 2.971-1.9153 5.171-4.8396 6.831-7.9612 4.11-7.7276 5.139-17.1633 2.231-25.4194-2.907-8.25613-9.873-15.10215-18.336-17.318939-8.463-2.216791-18.166.521499-23.82 7.201109-5.912 6.98483-6.87 17.21933-4.279 25.99813 2.59 8.7788 8.273 16.3179 14.517 23.0078-2.999-7.7168-4.988-15.7893-5.917-24.0167-.317-2.8176-.503-5.7221.292-8.4436.796-2.7216 2.754-5.2566 5.482-6.0213" fill="#2F2E41"/><path d="M319.509 267.23H132.515c-.13 0-.255-.051-.347-.144-.092-.092-.143-.216-.143-.347 0-.13.051-.255.143-.347.092-.092.217-.143.347-.143h186.994c.13 0 .255.051.347.143.092.092.144.217.144.347 0 .131-.052.255-.144.347-.092.093-.217.144-.347.144zM80 267.23H.490798c-.130168 0-.254997-.051-.34704-.144C.051716 266.994 0 266.87 0 266.739c0-.13.051716-.255.143758-.347.092043-.092.216872-.143.34704-.143H80c.1302 0 .255.051.347.143.0921.092.1438.217.1438.347 0 .131-.0517.255-.1438.347-.092.093-.2168.144-.347.144zM290.512 224.597h-14.567v-5.083c0-1.933.767-3.787 2.133-5.154s3.218-2.135 5.15-2.135c1.932 0 3.785.768 5.151 2.135 1.366 1.367 2.133 3.221 2.133 5.154v5.083zm-14.245-.323h13.922v-4.76c0-1.848-.733-3.619-2.039-4.926-1.305-1.306-3.076-2.04-4.922-2.04-1.846 0-3.617.734-4.922 2.04-1.306 1.307-2.039 3.078-2.039 4.926v4.76z" fill="#CACACA"/><path d="M297.715 223.898v-1.987l-37.047.994-1.172 50.317 5.483 6.778 32.736-56.102z" fill="#CACACA"/><path d="M304.273 223.198l-40.154.915.86 55.887 38.751-4.18.543-52.622z" fill="#E4E4E4"/></g><defs><clipPath id="clip0_20_57"><path fill="#fff" d="M0 0h320v280H0z"/></clipPath></defs></svg>