<svg width="320" height="415" viewBox="0 0 320 415" fill="none" xmlns="http://www.w3.org/2000/svg"><g clip-path="url(#clip0_29_237)"><path d="M94.3781 155.752L5.05745 136.499l-1.16081-.25c-.59113-.128-1.20649-.087-1.77532.119-.56883.205-1.06804.567-1.440203 1.044-.372165.476-.602187 1.048-.6635977 1.649-.0614107.602.0482889 1.208.3164577 1.75L35.7979 212.775c.2295.462.5668.863.9836 1.168.4167.305.9007.505 1.4111.584.512.08 1.0357.033 1.5259-.135.4901-.167.932-.452 1.2874-.829l24.6324-25.953c.1752-.189.3878-.34.6242-.443.2365-.104.4918-.157.7499-.157.3507-.004.6962.086.9994.262.3033.176.5529.432.7221.739l5.0454 9.325c.3221.622.8431 1.118 1.48 1.409.637.292 1.3533.362 2.0349.2l.0251-.005c.6899-.146 1.3106-.52 1.7624-1.061.4518-.541.7083-1.218.7284-1.923l1.0107-21.525c.0121-.269.0792-.532.1973-.774.1267-.239.2987-.451.5064-.625l14.2106-11.656c.4671-.383.8168-.89 1.0088-1.462.1921-.573.2188-1.188.0772-1.775-.1417-.587-.446-1.122-.8781-1.544-.4321-.423-.9745-.714-1.565-.843h.0001zm.5455 4.633L80.713 172.042c-.1851.149-.3529.318-.5002.505L4.89601 138.415c-.06643-.031-.13572-.055-.2069-.072-.29051-.075-.59805-.046-.86944.081-.27138.128-.48956.347-.61678.618-.12721.272-.15548.579-.07991.869.07557.29.25023.545.49377.72L65.544 186.086c-.3142.163-.598.379-.8387.639l-24.6321 25.953c-.2138.225-.4786.394-.7721.495-.2935.101-.607.129-.9138.082-.3067-.046-.5978-.166-.8484-.349-.2505-.182-.4532-.423-.5908-.701L1.48423 140.241c-.15854-.325-.22251-.688-.18459-1.048.03792-.36.17618-.701.39904-.986.22286-.285.52136-.502.86148-.626s.70819-.149 1.06228-.074l1.18836.256 89.2927 19.247c.3546.076.6803.251.94.504.2597.253.4428.574.5284.927.0856.352.0702.721-.0445 1.065-.1146.344-.3239.649-.6038.879z" fill="#FC79D7"/><path d="M113.418 412.471c-8.012-2.163-17.763-11.156-15.6755-23.517 1.0354-6.131 5.0085-10.1 9.1295-12.666 5.699-3.549 12.189-4.887 18.444-5.225 7.215-.389 14.421.593 21.582 1.633 7.069 1.026 14.139 1.944 21.239 2.505 27.785 2.178 55.74.104 82.899-6.15 6.703-1.546 13.365-3.359 19.988-5.44 6.276-1.846 12.411-4.138 18.36-6.857 7.874-3.778 20.678-11.128 19.634-24.74-.553-7.218-4.807-12.983-9.098-16.999-5.188-4.856-11.191-8.051-17.071-11.154-27.349-14.432-54.751-28.693-82.127-43.038-6.389-3.348-12.821-6.606-19.022-10.53-5.805-3.673-11.583-7.94-16.255-13.84-4.081-5.153-7.727-12.071-7.599-19.804.107-6.413 3.028-11.855 6.605-15.923 8.856-10.07 21.384-14.152 32.707-16.291 14.067-2.657 28.338-2.643 42.415-5.209 11.366-2.072 23.51-6.071 32.754-15.443 3.91-3.811 6.676-8.64 7.985-13.94 1.18-5.55.606-11.33-1.642-16.541-2.504-5.977-6.498-10.738-10.698-14.636-4.825-4.416-10.296-8.069-16.226-10.832-12.484-5.944-25.612-9.0397-38.401-13.6017-6.271-2.2373-12.606-4.6906-18.43-8.5335-4.934-3.2558-10.308-7.6443-13.053-14.1704-5.664-13.4648 7.847-21.4897 15.503-24.5294 5.204-1.9721 10.564-3.5053 16.023-4.5835 1.155-.2476.665-2.5502-.484-2.3037-5.747 1.1196-11.379 2.7629-16.826 4.9094-4.617 1.9167-9.38 4.4356-13.007 8.7701-1.651 1.957-2.871 4.2391-3.583 6.6981-.711 2.4591-.897 5.04-.545 7.5754.961 6.4606 5.136 11.4386 9.057 15.0443 5.186 4.7682 11.098 7.8821 17.093 10.4204 6.313 2.6733 12.761 4.7568 19.206 6.8005 12.879 4.083 26.336 7.723 37.962 16.412 8.133 6.079 19.181 17.476 16.476 31.603-1.201 6.271-4.848 11.174-8.783 14.78-4.622 4.11-9.951 7.348-15.73 9.557-25.764 10.36-54.118 2.951-79.218 17.023-8.534 4.785-18.9 13.496-18.983 27.202-.044 7.12 2.813 13.65 6.344 18.812 4.229 6.182 9.706 10.753 15.278 14.574 5.867 3.876 11.96 7.4 18.245 10.555 6.865 3.604 13.733 7.202 20.602 10.796l41.684 21.843 20.711 10.853c6.321 3.312 12.805 6.489 18.552 11.352 4.706 3.981 10.266 10.512 9.785 18.623-.381 6.441-4.663 11.089-8.576 14.196-5.067 4.024-10.758 6.627-16.421 8.79-6.532 2.494-13.171 4.564-19.824 6.424-13.626 3.806-27.533 6.526-41.589 8.135-14.022 1.613-28.148 2.139-42.251 1.573-7.125-.286-14.24-.856-21.344-1.708-7.322-.882-14.613-2.239-21.954-2.842-6.64-.544-13.344-.418-19.884 1.333-5.46 1.462-11.228 4.068-15.373 9.153-3.0551 3.883-4.5849 8.747-4.3017 13.677.2806 4.92 2.0362 9.643 5.0387 13.553 3.05 3.993 7.335 6.868 12.188 8.176 1.145.309 1.635-1.994.485-2.304z" fill="#192643"/><path d="M320 413.562H111.828V415H320v-1.438zM303.321 345.801c7.511 0 13.599-6.084 13.599-13.589 0-7.505-6.088-13.589-13.599-13.589-7.51 0-13.599 6.084-13.599 13.589 0 7.505 6.089 13.589 13.599 13.589zM278.511 154.272c7.51 0 13.599-6.084 13.599-13.589 0-7.505-6.089-13.589-13.599-13.589-7.511 0-13.6 6.084-13.6 13.589 0 7.505 6.089 13.589 13.6 13.589zM247.764.568447L210.003 16.9714c-1.668.7267-2.979 2.0848-3.646 3.7762-.667 1.6915-.635 3.5782.089 5.2463l11.725 26.9515c.727 1.6664 2.086 2.9766 3.779 3.643 1.693.6665 3.581.6347 5.25-.0882l37.761-16.403c1.668-.7267 2.979-2.0847 3.646-3.7762.667-1.6915.635-3.5782-.088-5.2463L256.793 4.12328c-.727-1.66646-2.086-2.97663-3.779-3.643065-1.692-.66643-3.581-.634698-5.25.088232zm1.563 3.593523c.226-.09704.463-.16528.706-.20309L237.267 28.0271l-26.221-7.17c.163-.1148.337-.2127.521-.2921l37.76-16.40303zm14.071 32.34173l-37.761 16.403c-.716.3098-1.525.3234-2.25.0378-.726-.2857-1.308-.8471-1.62-1.5613l-11.62-26.7094 27.599 7.547c.43.1175.887.0852 1.296-.0915.409-.1767.746-.4874.954-.8807l13.363-25.19196 11.563 26.58016c.311.715.324 1.5236.038 2.2485-.286.7249-.847 1.3069-1.562 1.6184z" fill="#192643"/><path d="M205.41 234.349c18.99 0 34.383-15.382 34.383-34.356 0-18.975-15.393-34.357-34.383-34.357-18.989 0-34.383 15.382-34.383 34.357 0 18.974 15.394 34.356 34.383 34.356z" fill="#FC79D7"/><path d="M199.993 413.985h-9.483c-1.107-.002-2.168-.442-2.951-1.224-.783-.782-1.223-1.843-1.224-2.949v-78.969c.001-1.106.441-2.167 1.224-2.949.783-.783 1.844-1.223 2.951-1.224h9.483c1.107.001 2.168.441 2.951 1.224.783.782 1.223 1.843 1.225 2.949v78.969c-.002 1.106-.442 2.167-1.225 2.949-.783.782-1.844 1.222-2.951 1.224zM218.747 413.985h-9.482c-1.107-.002-2.169-.442-2.952-1.224-.782-.782-1.223-1.843-1.224-2.949v-78.969c.001-1.106.442-2.167 1.224-2.949.783-.783 1.845-1.223 2.952-1.224h9.482c1.107.001 2.169.441 2.952 1.224.782.782 1.223 1.843 1.224 2.949v78.969c-.001 1.106-.442 2.167-1.224 2.949-.783.782-1.845 1.222-2.952 1.224z" fill="#192643"/><path d="M258.041 322.585c-.417 0-.831-.063-1.229-.185-.525-.159-1.013-.421-1.436-.77-.423-.349-.773-.778-1.028-1.263l-37.047-69.756c-.257-.484-.416-1.014-.468-1.559-.052-.545.003-1.096.164-1.62s.423-1.011.773-1.433c.349-.423.778-.772 1.262-1.029l8.376-4.442c.484-.257 1.014-.416 1.56-.468.546-.052 1.097.003 1.621.164.525.161 1.012.423 1.435.772.423.349.773.778 1.03 1.262l37.046 69.755c.257.484.416 1.014.469 1.559.052.546-.004 1.096-.165 1.62s-.423 1.011-.772 1.434c-.349.422-.779.772-1.263 1.029l-8.376 4.441c-.6.321-1.271.489-1.952.489zM180.92 258.289c-.501 0-.998-.091-1.467-.268l-73.931-27.908c-.513-.193-.983-.486-1.382-.861-.4-.376-.721-.826-.946-1.325-.226-.5-.35-1.038-.367-1.586-.017-.548.075-1.093.269-1.605l3.345-8.864c.395-1.034 1.183-1.869 2.193-2.324 1.01-.454 2.158-.491 3.195-.101l73.929 27.902c1.034.393 1.87 1.179 2.326 2.187.456 1.007.494 2.154.106 3.189l-3.351 8.865c-.302.794-.839 1.477-1.539 1.959s-1.53.74-2.38.74z" fill="#FC79D7"/><path d="M226.562 240.318h-43.084c-2.129 0-3.855 1.725-3.855 3.852v91.463c0 2.127 1.726 3.851 3.855 3.851h43.084c2.128 0 3.854-1.724 3.854-3.851V244.17c0-2.127-1.726-3.852-3.854-3.852zM230.807 166.347c2.02 4.43 3.954 9.784 1.779 14.523-.798 1.914-2.294 3.454-4.186 4.306-2.241.893-4.684.383-6.761-.697-4.372-2.273-7.191-6.498-11.095-9.393-1.777-1.383-3.879-2.288-6.106-2.629-2.565-.335-5.112.27-7.621.737-2.668.496-5.426.758-7.896-.594-2.173-1.269-3.874-3.21-4.845-5.53-.508-1.129-2.17-.15-1.664.972 2.1 4.658 6.443 7.832 11.662 7.465 2.761-.194 5.428-1.085 8.194-1.212 2.523-.084 4.998.707 7.005 2.237 4.286 3.053 7.195 7.742 12.113 9.96 2.32 1.046 4.977 1.482 7.423.581 2.11-.82 3.868-2.35 4.971-4.325 3.227-5.553 1.154-11.971-1.309-17.373-.514-1.126-2.175-.148-1.664.972z" fill="#192643"/><path d="M179.566 257.721l-30.383-9.257c-.948-.289-1.748-.931-2.234-1.794-.486-.862-.622-1.878-.378-2.838l3.547-13.965c.14-.552.401-1.066.763-1.505.363-.439.818-.792 1.334-1.034.515-.242 1.078-.367 1.648-.365.569.001 1.131.128 1.646.373l30.136 14.313c.955.362 1.727 1.088 2.148 2.018.421.93.456 1.989.097 2.945l-3.351 8.865c-.363.956-1.09 1.729-2.022 2.15-.932.421-1.994.455-2.951.094zM217.847 249.821l13.031 28.947c.406.903 1.145 1.615 2.062 1.988.918.373 1.944.378 2.866.016l13.415-5.281c.53-.209 1.007-.532 1.397-.947.39-.415.683-.911.858-1.453.176-.541.228-1.115.155-1.679-.073-.565-.271-1.106-.578-1.585l-18.019-28.062c-.48-.901-1.298-1.575-2.274-1.875-.977-.299-2.032-.2-2.936.276l-8.377 4.443c-.904.48-1.579 1.298-1.879 2.275-.3.978-.2 2.034.279 2.937zM94.3781 155.752L5.05745 136.499l-1.16081-.25c-.59113-.128-1.20649-.087-1.77532.119-.56883.205-1.06804.567-1.440203 1.044-.372165.476-.602187 1.048-.6635977 1.649-.0614107.602.0482889 1.208.3164577 1.75L35.7979 212.775c.2295.462.5668.863.9836 1.168.4167.305.9007.505 1.4111.584.512.08 1.0357.033 1.5259-.135.4901-.167.932-.452 1.2874-.829l24.6324-25.953c.1752-.189.3878-.34.6242-.443.2365-.104.4918-.157.7499-.157.3507-.004.6962.086.9994.262.3033.176.5529.432.7221.739l5.0454 9.325c.3221.622.8431 1.118 1.48 1.409.637.292 1.3533.362 2.0349.2l.0251-.005c.6899-.146 1.3106-.52 1.7624-1.061.4518-.541.7083-1.218.7284-1.923l1.0107-21.525c.0121-.269.0792-.532.1973-.774.1267-.239.2987-.451.5064-.625l14.2106-11.656c.4671-.383.8168-.89 1.0088-1.462.1921-.573.2188-1.188.0772-1.775-.1417-.587-.446-1.122-.8781-1.544-.4321-.423-.9745-.714-1.565-.843h.0001zm.5455 4.633L80.713 172.042c-.1851.149-.3529.318-.5002.505-.1328.165-.2474.345-.342.535-.0992.195-.1773.4-.2331.611l.0014.006c-.0589.22-.0928.446-.1012.673l-1.0104 21.526c-.0085.423-.1608.831-.432 1.156-.2712.326-.6451.549-1.0602.634l-.0126.002c-.409.102-.8403.062-1.224-.112-.3838-.174-.6974-.472-.8901-.847l-5.0468-9.331c-.26-.48-.6384-.886-1.0994-1.179-.4609-.293-.9891-.463-1.5344-.494l-.0061.001c-.0734-.003-.1465-.007-.2182-.004-.5088 0-1.0099.124-1.4597.362-.3142.163-.598.379-.8387.639l-24.6321 25.953c-.2138.225-.4786.394-.7721.495-.2935.101-.607.129-.9138.082-.3067-.046-.5978-.166-.8483-.349-.2506-.182-.4533-.423-.5909-.701L1.48423 140.241c-.15854-.325-.22251-.688-.18459-1.048.03792-.36.17618-.701.39904-.986.22286-.285.52136-.502.86148-.626s.70819-.149 1.06228-.074l1.18836.256 89.2927 19.247c.3546.076.6803.251.94.504.2597.253.4428.574.5284.927.0856.352.0702.721-.0445 1.065-.1146.344-.3239.649-.6038.879z" fill="#192643"/><path d="M80.4978 172.674l-.5308 1.17-.3279-.145-.0014-.006-75.25712-34.099 62.84122 46.134.0062-.001.1664.127-.7577 1.036-1.0927-.804-61.92726-45.455c-.24354-.175-.4182-.43-.49377-.72-.07557-.29-.0473-.597.07991-.869.12722-.271.34539-.49.61678-.618.27139-.127.57893-.156.86944-.081.07118.017.14047.041.2069.072l75.3168 34.131.285.128z" fill="#192643"/></g><defs><clipPath id="clip0_29_237"><path fill="#fff" d="M0 0h320v415H0z"/></clipPath></defs></svg>