<svg width="320" height="208" viewBox="0 0 320 208" fill="none" xmlns="http://www.w3.org/2000/svg"><g clip-path="url(#clip0_41_259)"><path d="M253.404 207.064h-6.141c-.717-.001-1.404-.286-1.911-.793-.507-.507-.792-1.194-.793-1.911v-51.174c.001-.717.286-1.404.793-1.911.507-.507 1.194-.792 1.911-.793h6.141c.717.001 1.404.286 1.911.793.507.507.792 1.194.793 1.911v51.174c-.001.717-.286 1.404-.793 1.911-.507.507-1.194.792-1.911.793zM236.682 207.064h-6.14c-.717-.001-1.405-.286-1.912-.793-.507-.507-.792-1.194-.793-1.911v-51.174c.001-.717.286-1.404.793-1.911.507-.507 1.195-.792 1.912-.793h6.14c.717.001 1.405.286 1.912.793.507.507.792 1.194.793 1.911v51.174c-.001.717-.286 1.404-.793 1.911-.507.507-1.195.792-1.912.793z" fill="#FC79D7"/><path d="M239.279 194.896h-12.065c-.496-.001-.972-.198-1.323-.549-.351-.351-.549-.827-.549-1.323v-42.016c0-.496.198-.972.549-1.323.351-.351.827-.548 1.323-.549h12.065c.497.001.973.198 1.324.549.351.351.548.827.549 1.323v42.016c-.001.496-.198.972-.549 1.323-.351.351-.827.548-1.324.549zM256.337 194.896h-12.065c-.497-.001-.972-.198-1.323-.549-.351-.351-.549-.827-.549-1.323v-42.016c0-.496.198-.972.549-1.323.351-.351.826-.548 1.323-.549h12.065c.496.001.972.198 1.323.549.351.351.549.827.549 1.323v42.016c0 .496-.198.972-.549 1.323-.351.351-.827.548-1.323.549z" fill="#2F2E41"/><path d="M235.753 122.092c-.172.118-.35.227-.533.327l-42.277 22.957c-.312.169-.654.276-1.007.313-.354.037-.711.004-1.051-.097-.341-.1-.658-.267-.934-.491-.276-.223-.505-.499-.675-.811l-2.93-5.396.182-.099-.182.099c-.342-.63-.419-1.37-.216-2.057.204-.688.672-1.266 1.301-1.609l42.277-22.957c1.299-.705 2.818-.885 4.245-.504 1.428.381 2.655 1.294 3.429 2.552s1.037 2.765.734 4.211c-.303 1.446-1.149 2.72-2.363 3.562zM242.413 97.0763c11.719 0 21.219-9.4987 21.219-21.216 0-11.7172-9.5-21.216-21.219-21.216-11.718 0-21.218 9.4988-21.218 21.216 0 11.7173 9.5 21.216 21.218 21.216z" fill="#FC79D7"/><path d="M243.898 54.5816c.156-2.5079.849-4.953 2.033-7.1698 1.183-2.2167 2.829-4.1533 4.826-5.6786 2.063-1.5278 4.445-2.571 6.967-3.0519 2.522-.481 5.12-.3874 7.601.2739 2.465.6404 4.752 1.8321 6.689 3.485 1.938 1.653 3.475 3.7242 4.495 6.0574 1.027 2.3159 1.54 4.827 1.502 7.3601-.113 2.7546-.798 5.4557-2.01 7.9319-1.251 2.7257-2.829 5.2829-4.199 7.9474-1.35 2.6274-2.515 5.3459-3.486 8.1357-1.975 5.6843-3.141 11.6183-3.462 17.6275-.509 9.4728.397 23.3018 11.092 26.9368 2.72.925 5.653 1.097 8.505 1.089 3.003.037 5.998-.314 8.911-1.043 5.049-1.348 9.842-4.514 11.994-9.432.495-1.135.828-2.336.987-3.564.045-.337-.319-.621-.624-.624-.165.003-.321.07-.437.187-.116.116-.183.272-.187.437-.697 5.24-5.064 9.259-9.806 11.066-2.771 1.004-5.682 1.567-8.627 1.669-2.932.148-5.976.125-8.846-.55-2.555-.553-4.88-1.874-6.662-3.786-1.589-1.83-2.774-3.973-3.478-6.291-1.688-5.153-1.865-10.817-1.569-16.1872.336-5.9894 1.527-11.9001 3.536-17.5525 1.015-2.8538 2.239-5.6289 3.662-8.3024 1.391-2.6151 2.935-5.1563 4.107-7.8821 1.143-2.5054 1.772-5.2149 1.849-7.9678.009-2.5425-.497-5.0604-1.488-7.4019-.974-2.3509-2.434-4.4691-4.285-6.2157-1.85-1.7466-4.05-3.0819-6.453-3.9185-2.445-.851-5.041-1.1815-7.622-.9701-2.58.2113-5.088.9598-7.362 2.1974-2.163 1.2434-4.059 2.9032-5.576 4.8834-1.518 1.9802-2.629 4.2416-3.267 6.6535-.31 1.1945-.497 2.4178-.558 3.6505-.041.8027 1.207.8005 1.248 0z" fill="#2F2E41"/><path d="M248.047 55.0197c.341-2.3147 1.501-4.4304 3.269-5.9625 1.88-1.5753 4.289-2.375 6.738-2.2362.803.0402.8-1.2079 0-1.248-2.662-.12-5.274.7424-7.341 2.423s-3.444 4.0623-3.869 6.6919c-.12.7857 1.082 1.1245 1.203.3318z" fill="#2F2E41"/><path d="M248.495 56.6634c-.243 0-.485-.0391-.716-.1155l-5.926-1.9567c-.285-.0943-.549-.2438-.777-.44-.227-.1962-.414-.4354-.549-.7038-.135-.2683-.216-.5607-.238-.8604-.022-.2996.015-.6007.109-.8861.094-.2853.244-.5493.44-.7768.196-.2276.435-.4143.704-.5494.268-.1351.56-.2161.86-.2382.3-.0222.601.0149.886.1091l5.926 1.9568c.517.1705.956.5196 1.238.9845.283.465.39 1.0154.304 1.5525-.087.5371-.362 1.0258-.776 1.3784-.415.3526-.941.546-1.485.5456zM249.435 105.248h-1.022c.011-.069.017-.138.019-.208 0-1.723-2.608-3.12-5.824-3.12-3.217 0-5.825 1.397-5.825 3.12.002.07.009.139.02.208h-1.022c-7.948 0-14.392 7.38-14.392 16.483V156c0 .441.176.865.488 1.177.312.312.735.487 1.177.487h39.108c.441 0 .864-.175 1.176-.487.312-.312.488-.736.488-1.177v-34.269c0-9.103-6.443-16.483-14.391-16.483z" fill="#2F2E41"/><path d="M74.3633 75.3435c-1.1842.002-2.337-.3811-3.2845-1.0915l-.0587-.044-12.371-9.4624c-1.153-.8885-1.9065-2.1979-2.0953-3.6411-.1888-1.4432.2025-2.9024 1.0882-4.0575.8856-1.1551 2.1933-1.9118 3.6361-2.1043 1.4429-.1924 2.9032.1952 4.0607 1.0778l8.0129 6.1441 18.935-24.7002c.439-.5727.9866-1.0533 1.6114-1.4143.6249-.3611 1.3147-.5956 2.0301-.69.7155-.0945 1.4425-.0472 2.1396.1393.6972.1864 1.3508.5084 1.9235.9474l.0016.0012-.1175.1632.1207-.1632c1.1549.8879 1.9109 2.1979 2.1019 3.6425.191 1.4446-.2 2.9057-1.085 4.0629L78.7409 73.1932c-.5153.6692-1.1778 1.2106-1.9361 1.5824-.7583.3717-1.5921.5638-2.4367.5614l-.0048.0065z" fill="#FC79D7"/><path d="M143.797 110.656H.416044c-.110342 0-.216165-.044-.294188-.122C.0438327 110.456 0 110.35 0 110.24V.416C0 .30567.0438327.199858.121856.121843.199879.0438281.305702 0 .416044 0H72.1067c.1103 0 .2161.0438281.2942.121843.078.078015.1218.183827.1218.294157 0 .11033-.0438.216142-.1218.294157C72.3228.788172 72.217.832 72.1067.832H.832087v108.992H143.381V55.328c0-.1103.044-.2161.122-.2941.078-.0781.184-.1219.294-.1219.111 0 .217.0438.295.1219.078.078.121.1838.121.2941v54.912c0 .11-.043.216-.121.294-.078.078-.184.122-.295.122z" fill="#3F3D56"/><path d="M203.266 142.837c-.165 0-.329-.022-.488-.065-.237-.063-.46-.172-.656-.322-.195-.149-.358-.336-.481-.55l-6.656-11.528c-.123-.213-.203-.448-.235-.692-.032-.244-.016-.491.048-.729.063-.237.173-.46.323-.655.149-.195.336-.359.549-.481l28.824-16.64c1.959-1.131 4.287-1.438 6.472-.852 2.185.585 4.048 2.014 5.179 3.973 1.131 1.959 1.438 4.286.852 6.471-.585 2.185-2.015 4.048-3.974 5.178l-28.824 16.64c-.284.165-.605.252-.933.252z" fill="#2F2E41"/><path d="M319.584 208H161.071c-.11 0-.216-.044-.294-.122-.078-.078-.122-.184-.122-.294 0-.11.044-.216.122-.294.078-.078.184-.122.294-.122h158.513c.11 0 .216.044.294.122.078.078.122.184.122.294 0 .11-.044.216-.122.294-.078.078-.184.122-.294.122z" fill="#3F3D56"/><path d="M261.384 167.399c-.231.467-.593.858-1.041 1.125-.448.267-.964.399-1.485.38l-6.136-.225c-.717-.027-1.393-.337-1.881-.863-.488-.525-.748-1.222-.722-1.939l1.767-48.071c.028-.758.205-1.503.52-2.192.316-.689.765-1.31 1.32-1.826.556-.516 1.207-.918 1.918-1.182.711-.264 1.467-.386 2.225-.358.758.028 1.502.205 2.192.52.689.316 1.31.764 1.826 1.32.516.555.918 1.207 1.182 1.918.264.711.386 1.466.358 2.224l-1.767 48.072c-.013.381-.107.755-.276 1.097z" fill="#FC79D7"/><path d="M263.41 152.048h-13.314c-.496-.001-.972-.198-1.323-.549-.351-.351-.548-.827-.549-1.323v-33.28c0-2.262.899-4.431 2.498-6.03 1.6-1.6 3.769-2.498 6.031-2.498 2.262 0 4.431.898 6.031 2.498 1.599 1.599 2.498 3.768 2.498 6.03v33.28c-.001.496-.198.972-.549 1.323-.351.351-.827.548-1.323.549z" fill="#2F2E41"/></g><defs><clipPath id="clip0_41_259"><path fill="#fff" d="M0 0h320v208H0z"/></clipPath></defs></svg>