<svg width="320" height="210" viewBox="0 0 320 210" fill="none" xmlns="http://www.w3.org/2000/svg"><g clip-path="url(#clip0_29_180)"><path d="M14.1289 193.442c1.3499.475 2.7993.594 4.2084.345 1.4092-.248 2.7307-.856 3.8372-1.763 2.818-2.368 3.7017-6.266 4.4204-9.877l2.1264-10.68-4.4517 3.068c-3.2016 2.206-6.4751 4.483-8.6917 7.678-2.2165 3.195-3.1835 7.557-1.4031 11.014" fill="#E6E6E6"/><path d="M14.8163 207.115c-.5603-4.085-1.1368-8.223-.7429-12.351.3492-3.667 1.4671-7.248 3.7431-10.186 1.2081-1.555 2.6781-2.889 4.344-3.939.4343-.274.8341.414.4016.688-2.8824 1.823-5.112 4.514-6.3671 7.687-1.3862 3.528-1.6087 7.374-1.37 11.122.1443 2.267.451 4.518.759 6.767.0244.102.0092.209-.0424.3s-.1358.159-.2356.19c-.1017.028-.2102.014-.3018-.038-.0917-.052-.1591-.139-.1877-.24h-.0002z" fill="#F2F2F2"/><path d="M18.8493 200.561c.5789.88 1.3746 1.597 2.3107 2.081.936.483 1.9807.717 3.0334.68 2.7061-.129 4.9611-2.018 6.9909-3.812l6.005-5.306-3.9742-.19c-2.858-.137-5.7898-.266-8.512.617-2.7222.883-5.2327 3.005-5.7304 5.825" fill="#E6E6E6"/><path d="M13.2324 209.464c2.6975-4.777 5.8262-10.085 11.417-11.782 1.5544-.47 3.1843-.638 4.8019-.496.5099.044.3826.83-.1263.787-2.7115-.226-5.4178.491-7.6633 2.028-2.1609 1.472-3.8434 3.519-5.2672 5.688-.8723 1.33-1.6536 2.715-2.4349 4.099-.2497.442-.9798.123-.7272-.324z" fill="#F2F2F2"/><path d="M201.498 108.626H83.132v100.89h118.366v-100.89z" fill="#fff"/><path d="M201.842 209.86H82.7879V108.282H201.842V209.86zm-118.3659-.688H201.153V108.971H83.4761v100.201z" fill="#3F3D56"/><path d="M157.111 128.253h-29.592v81.263h29.592v-81.263z" fill="#FC79D7"/><path d="M157.111 128.253h-29.592v81.263h29.592v-81.263z" fill="#FC79D7"/><path opacity=".2" d="M83.476 116.029v16.369l118.021 7.563-.347-20.198-117.674-3.734z" fill="#000"/><path d="M208.379 99.3293H76.2502v28.9237H208.379V99.3293z" fill="#fff"/><path d="M208.723 128.598H75.9062V98.985H208.723v29.613zm-132.1286-.689H208.035V99.6736H76.5944v28.2354z" fill="#3F3D56"/><path d="M157.111 96.5746h-29.592v31.3344h29.592V96.5746z" fill="#FC79D7"/><path d="M139.146 69.2539c7.812 11.5874.452 30.224.452 30.224s-20.024-.1502-27.835-11.7376c-7.812-11.5874-.452-30.224-.452-30.224s20.024.1502 27.835 11.7376z" fill="#FC79D7"/><path d="M142.73 69.2539c-7.811 11.5874-.451 30.224-.451 30.224s20.024-.1502 27.835-11.7376.452-30.224.452-30.224-20.024.1502-27.836 11.7376z" fill="#FC79D7"/><path d="M121.67 77.9806c1.71 0 3.096-1.3875 3.096-3.099 0-1.7115-1.386-3.099-3.096-3.099-1.711 0-3.097 1.3875-3.097 3.099 0 1.7115 1.386 3.099 3.097 3.099zM140.25 109.315c1.711 0 3.097-1.388 3.097-3.099 0-1.712-1.386-3.099-3.097-3.099-1.71 0-3.096 1.387-3.096 3.099 0 1.711 1.386 3.099 3.096 3.099zM140.25 177.149c1.711 0 3.097-1.388 3.097-3.099 0-1.712-1.386-3.099-3.097-3.099-1.71 0-3.096 1.387-3.096 3.099 0 1.711 1.386 3.099 3.096 3.099zM129.928 88.3106c1.14 0 2.064-.925 2.064-2.066 0-1.141-.924-2.066-2.064-2.066-1.141 0-2.065.925-2.065 2.066 0 1.141.924 2.066 2.065 2.066zM160.895 70.7496c1.141 0 2.065-.925 2.065-2.066 0-1.141-.924-2.066-2.065-2.066-1.14 0-2.064.925-2.064 2.066 0 1.141.924 2.066 2.064 2.066zM147.476 119.301c1.14 0 2.065-.925 2.065-2.066 0-1.141-.925-2.066-2.065-2.066s-2.064.925-2.064 2.066c0 1.141.924 2.066 2.064 2.066zM135.089 146.159c1.14 0 2.065-.925 2.065-2.066 0-1.141-.925-2.066-2.065-2.066s-2.065.925-2.065 2.066c0 1.141.925 2.066 2.065 2.066zM145.756 155.456c1.14 0 2.064-.925 2.064-2.066 0-1.141-.924-2.066-2.064-2.066-1.141 0-2.065.925-2.065 2.066 0 1.141.924 2.066 2.065 2.066zM143.347 194.365c1.14 0 2.065-.925 2.065-2.066 0-1.141-.925-2.066-2.065-2.066s-2.064.925-2.064 2.066c0 1.141.924 2.066 2.064 2.066z" fill="#3F3D56"/><path d="M270.67 205.713l-3.775-.001-1.797-14.574h5.573l-.001 14.575z" fill="#FFB7B7"/><path d="M271.633 209.375h-12.174v-.154c0-1.258.499-2.464 1.388-3.354.888-.889 2.094-1.388 3.35-1.388h7.437l-.001 4.896z" fill="#2F2E41"/><path d="M279.892 205.713l3.776-.001 1.796-14.574h-5.572v14.575z" fill="#FFB7B7"/><path d="M278.929 204.479h7.437c1.256 0 2.462.499 3.35 1.388.889.89 1.388 2.096 1.388 3.354v.154H278.93l-.001-4.896z" fill="#2F2E41"/><path d="M269.831 91.8192c1.622-3.2664.291-7.23-2.974-8.8529-3.264-1.623-7.224-.2906-8.846 2.9758-1.622 3.2665-.29 7.2301 2.974 8.853 3.264 1.6229 7.224.2906 8.846-2.9759z" fill="#FFB7B7"/><path d="M259.062 134.313s-2.084 8.69-1.042 12.861c1.042 4.171 4.168 32.673 4.168 32.673l2.084 22.594 8.336.695-1.042-26.417 1.042-22.941 5.905 22.246v26.496l8.84.347.19-34.49s.695-27.112-3.82-30.588c-4.516-3.476-5.21-4.171-5.21-4.171l-19.451.695z" fill="#2F2E41"/><path d="M271.646 96.0785l7.908 4.1715 1.043 36.149s-4.516-2.781-11.463.695c-6.946 3.476-11.462 1.043-11.462 1.043l4.168-15.642-1.736-20.855 2.484-2.2563 9.058-3.3052z" fill="#CBCBCB"/><path d="M262.588 98.7257l-1.442 1.1762s-9.031 4.5191-9.379 7.6471l6.253 17.032s1.736 3.823.347 5.214c-1.389 1.39-2.779 4.866-2.432 6.604.348 1.738-2.084 9.037.695 9.037s9.378-16.684 9.031-23.288c-.347-6.605-.588-23.9033-3.073-23.4223zM268.66 96.4701l3.181-.5297s11.81 3.1283 13.547 8.3426l-4.863 12.165s3.473 22.246 2.431 22.246h-1.042s2.779 2.085 1.042 2.781c-1.737.695-5.905 6.256-6.947 3.823-1.042-2.433-7.294-31.283-6.599-37.54.695-6.256-1.367-10.6324-.75-11.2879zM270.041 82.4142l.309-.6226-1.556-.7733s-1.715-2.7937-4.82-2.0086c-3.105.7851-4.502 1.2549-4.502 1.2549l-1.551.7812.779.7753-1.397.4698.933.464-1.086.6245.585 3.2016s.97-2.4282 2.837-1.5003c1.866.928 5.28-.4797 5.28-.4797l2.966 5.744s.612-2.0135 1.703-1.4766c0 0 2.787-4.4417-.48-6.4542z" fill="#2F2E41"/><path d="M279.701 143.407c-.171-.419-.249-.871-.227-1.324.022-.452.142-.894.353-1.295.211-.401.508-.751.868-1.025.361-.274.777-.465 1.22-.56l1.337-10.932 4.357 3.708-1.938 9.812c.111.755-.059 1.524-.476 2.162-.418.638-1.056 1.1-1.792 1.3-.735.199-1.519.121-2.201-.219-.682-.34-1.216-.919-1.501-1.627zM261.068 142.655c.126-.435.156-.893.086-1.341-.07-.447-.236-.874-.489-1.25-.252-.377-.584-.693-.971-.927-.388-.234-.822-.38-1.273-.428l-2.487-10.729-3.939 4.15 2.966 9.552c-.03.762.22 1.509.703 2.099.483.59 1.166.982 1.918 1.102.753.12 1.524-.041 2.166-.451.643-.411 1.112-1.043 1.32-1.777z" fill="#FFB7B7"/><path d="M279.869 101.45s4.516-1.7381 5.905 3.476c1.39 5.214 3.126 15.641 3.126 15.641.087 5.799-.221 5.799 0 11.471l-1.042 5.214-5.905-.696.258-13.272-3.036-13.492.694-8.342zM254.893 105.463l-2.14.23s-2.028 1.508-2.028 4.984-.347 13.904-.347 13.904-.197.244 1.389 9.037c.774 4.286 2.11 6.309 2.11 6.309l4.312-4.007-.517-10.296 1.39-5.562-4.169-14.599z" fill="#2F2E41"/><path d="M319.656 209.86H.344086c-.091257 0-.178777-.036-.243306-.101C.0362516 209.695 0 209.607 0 209.516s.0362516-.179.10078-.243c.064529-.065.152049-.101.243306-.101H319.656c.091 0 .179.036.243.101.065.064.101.152.101.243s-.036.179-.101.243c-.064.065-.152.101-.243.101z" fill="#3F3D56"/><path d="M79.363 107.512c4.186 0 7.5794-3.396 7.5794-7.5846 0-4.1891-3.3934-7.5849-7.5794-7.5849-4.1861 0-7.5795 3.3958-7.5795 7.5849 0 4.1886 3.3934 7.5846 7.5795 7.5846zM76.6264 144.809c-.0954 0-.1913-.005-.2876-.013-.4767-.04-.9396-.18-1.3584-.411-.4188-.232-.784-.549-1.0717-.931-.2878-.383-.4915-.822-.5979-1.289-.1063-.466-.113-.95-.0194-1.42.0221-.109.0499-.216.0833-.323l-11.1866-13.24c-.3645-.434-.5792-.975-.6123-1.542-.033-.566.1174-1.128.4288-1.603l.0203-.024 10.0693-9.936c.5498-.543 1.2923-.844 2.0642-.839.7719.006 1.5101.318 2.0521.868.542.55.8434 1.293.838 2.065-.0055.773-.3173 1.512-.8671 2.054-.0126.012-.0253.025-.0382.037l-7.2928 6.938 7.9838 12.823c.1512.008.3017.027.4503.056.8259.165 1.561.631 2.0627 1.308s.734 1.516.652 2.355c-.082.839-.4726 1.617-1.0959 2.184-.6232.566-1.4347.881-2.2769.883zM91.8462 205.49h3.7836l1.7995-14.603h-5.5838l.0007 14.603z" fill="#FFB8B8"/><path d="M90.8813 204.254H98.3323c1.2592 0 2.4667.5 3.3577 1.391.89.891 1.39 2.1 1.39 3.36v.155H90.8815l-.0002-4.906z" fill="#2F2E41"/><path d="M54.2421 200.256l3.2509 1.937 9.0123-11.626-4.7976-2.859-7.4656 12.548z" fill="#FFB8B8"/><path d="M54.0449 198.699l6.4018 3.815h.0003c1.082.645 1.8638 1.693 2.1733 2.915.3095 1.221.1215 2.516-.5227 3.598l-.0001.001-.079.132-10.4817-6.245 2.5081-4.216zM96.5224 200.332h-4.2365c-.343.001-.6741-.126-.9292-.355-.255-.23-.416-.546-.4516-.888l-4.2711-40.176c-.0107-.101-.0545-.196-.1244-.269-.0699-.074-.1622-.123-.2625-.139-.1004-.016-.2032.001-.2927.049-.0895.048-.1607.125-.2026.217l-7.7049 17.074-13.6413 22.26c-.1765.285-.4499.497-.77.597-.3201.1-.6655.082-.9731-.052l-5.4495-2.4c-.1802-.079-.3415-.196-.4731-.342-.1317-.147-.2307-.32-.2906-.507-.0598-.188-.0791-.386-.0566-.582.0226-.196.0865-.384.1874-.554l12.54-21.012 3.846-17.704c-1.2096-7.678 3.9759-19.092 4.0285-19.207l.0257-.055 14.2836-5.587.0716.087c5.6331 18.499 9.0655 38.407 6.5311 68.272-.0312.346-.1903.669-.4463.904-.2559.236-.5903.367-.9379.369z" fill="#2F2E41"/><path d="M76.4448 138.157l-.0665-.14c-.0318-.067-3.2079-6.77-5.6562-13.935-.4706-1.385-.6484-2.854-.5224-4.311.1261-1.458.5533-2.874 1.2546-4.158.7105-1.297 1.6824-2.433 2.8543-3.335 1.1719-.902 2.5182-1.55 3.9535-1.904 2.4919-.598 5.1153-.28 7.3925.896 2.2772 1.176 4.0564 3.131 5.0137 5.51 1.9421 4.86 1.3231 10.047.7406 14.127l-.0116.082-.0743.035-14.8782 7.133z" fill="#FC79D7"/><path d="M88.5528 95.6428H76.5176v-5.2499c2.6416-1.0502 5.2265-1.9434 6.7891 0 1.3914 0 2.7257.5531 3.7096 1.5377.9838.9845 1.5365 2.3198 1.5365 3.7122z" fill="#2F2E41"/><path d="M75.8512 89.4664c-7.1949 0-9.2087 9.0251-9.2087 14.1166 0 2.839 1.2832 3.855 3.2996 4.199l.7121-3.801 1.6679 3.964c.5664.003 1.1615-.008 1.7783-.019l.5655-1.166 1.2611 1.145c5.0507.007 9.1328.744 9.1328-4.322 0-5.0915-1.7661-14.1166-9.2086-14.1166z" fill="#2F2E41"/><path d="M107.832 99.5672c.046.0838.088.17.127.2587.193.4381.292.9111.29 1.3901-.002.479-.105.952-.302 1.388-.198.436-.485.825-.843 1.142-.359.317-.78.555-1.236.698-.106.033-.214.06-.323.082l-6.2479 16.172c-.2065.528-.5778.976-1.0588 1.277-.4811.3-1.0461.438-1.6114.392l-.0314-.006-13.5408-4.079c-.7385-.224-1.3582-.731-1.7229-1.412-.3647-.68-.4447-1.477-.2222-2.217.2224-.739.729-1.36 1.4085-1.725.6795-.366 1.4762-.447 2.2151-.225.0169.005.0338.011.0506.016l9.5808 3.078 7.4174-13.159c-.065-.137-.121-.278-.167-.422-.251-.805-.195-1.674.158-2.4387.353-.7651.978-1.3716 1.753-1.7017.774-.33 1.644-.3602 2.44-.0846s1.461.8374 1.866 1.5762z" fill="#FFB8B8"/><path d="M228.204 58.4914c-5.062-6.7789-14.326-8.4149-18.93-4.9723-4.604 3.4426-5.661 12.7974-.599 19.5764 4.685 6.2747 13.174 7.986 17.85 5.6352-.015.0734-.016.149-.003.2227l.264 1.3042c.02.0994.065.192.131.2691.066.077.15.1359.245.1711.095.0351.198.0454.298.0298.1-.0156.195-.0566.274-.1191l2.233-1.7451c.08-.0625.142-.1443.182-.2378.039-.0934.054-.1954.043-.2962-.011-.1009-.048-.1972-.107-.2799-.059-.0826-.137-.1489-.229-.1925l-1.201-.5714c-.042-.019-.086-.033-.132-.0416 3.604-3.8129 4.377-12.4642-.319-18.7526z" fill="#CCC"/><path d="M217.132 55.932c2.476.3936 4.707 1.7236 6.231 3.7153 1.525 1.9917 2.227 4.4933 1.962 6.9882-.054.5715.838.5678.892 0 .256-2.6891-.515-5.3754-2.156-7.5201-1.641-2.1448-4.031-3.5893-6.692-4.0441-.561-.0955-.803.7645-.237.8607z" fill="#fff"/><path d="M59.2508 66.9939c4.4255-7.2112 2.523-16.4311-2.3743-19.4409-4.8972-3.0099-13.9749-.5382-18.4004 6.673-4.0964 6.6748-2.5502 15.2012 1.3597 18.6811-.0737.013-.1443.0401-.2079.0797l-1.1137.7268c-.0849.0554-.1542.1316-.2014.2214-.0472.0898-.0707.1901-.0682.2915.0024.1014.0308.2005.0823.2879.0515.0873.1244.1601.2119.2113l2.4451 1.4313c.0875.0513.1866.0792.2879.0813.1014.0021.2016-.0217.2911-.0692.0895-.0476.1654-.1173.2205-.2024.0551-.0852.0875-.183.0941-.2842l.0872-1.3278c.0021-.0463-.0014-.0927-.0102-.1382 4.8718 1.9433 13.1911-.5333 17.2963-7.2226z" fill="#CCC"/><path d="M57.5381 55.7517c.549 2.4481.1379 5.0136-1.1486 7.1672-1.2864 2.1535-3.35 3.7305-5.7647 4.4056-.5508.1605-.2178.9889.3294.8295 2.5915-.7558 4.8016-2.4642 6.1871-4.7824 1.3856-2.3182 1.8441-5.075 1.2836-7.7173-.1187-.5574-1.0064-.4642-.8868.0974z" fill="#fff"/><path d="M280.521 14.7812c-.37-8.4544-7.107-15.025886-12.848-14.77420606C261.931.258674 255.795 7.39446 256.165 15.8489c.342 7.8256 6.395 14.0223 11.582 14.7135-.054.0521-.097.1141-.127.1825l-.516 1.2264c-.039.0935-.054.1955-.043.2963.011.1008.048.1971.107.2797.058.0826.137.1488.229.1924.091.0435.193.0628.294.0562l2.826-.1848c.102-.0066.199-.0389.284-.094.086-.0551.155-.131.203-.2205.047-.0896.071-.1899.069-.2913-.002-.1014-.03-.2006-.081-.2882l-.671-1.1488c-.024-.0395-.053-.076-.086-.1087 5.124-1.121 10.629-7.8358 10.286-15.6784z" fill="#FC79D7"/><path d="M272.81 6.42812c1.825 1.72028 2.92 4.07608 3.06 6.58118.14 2.5051-.687 4.9682-2.31 6.881-.366.4417.373.9413.737.5025 1.724-2.0788 2.599-4.7328 2.449-7.4299-.15-2.697-1.313-5.23774-3.256-7.11256-.41-.39523-1.094.17961-.68.57778z" fill="#fff"/><path d="M227.708 39.1883c-2.214-.1395-4.362-.8019-6.27-1.9329-1.908-1.1309-3.521-2.6983-4.707-4.5735-.332-.5316-.766-1.1158-.536-1.7702.08-.2509.243-.4672.462-.6135.219-.1462.481-.2139.743-.1919.678.0826 1.116.7466 1.2 1.3828.094.7217-.414 1.2882-1.042 1.5564-1.535.6552-3.084-.3574-4.334-1.1655-2.849-1.8415-5.983-3.5068-9.435-3.7166-3.194-.1942-6.619 1.0591-8.396 3.8309-.311.4849.461.9331.77.4505 1.762-2.749 5.324-3.7363 8.421-3.3114 1.846.2915 3.628.8969 5.269 1.7902.851.4421 1.677.9322 2.486 1.4473.77.5375 1.585 1.0055 2.438 1.3986 1.422.5844 3.303.5388 4.297-.8067.926-1.2553.21-3.345-1.34-3.6979-.339-.0671-.691-.0487-1.022.0535-.331.1022-.631.285-.874.5321-.243.247-.421.5505-.518.8834-.097.3328-.11.6845-.038 1.0236.154.7392.711 1.4626 1.141 2.0667 1.294 1.8211 2.979 3.3286 4.932 4.4114 1.953 1.0828 4.124 1.7134 6.353 1.8453.573.0284.572-.8643 0-.8926z" fill="#CCC"/></g><defs><clipPath id="clip0_29_180"><path fill="#fff" d="M0 0h320v210H0z"/></clipPath></defs></svg>